<svg xmlns="http://www.w3.org/2000/svg" width="24" height="20" viewBox="0 0 24 20">
  <metadata><?xpacket begin="﻿" id="W5M0MpCehiHzreSzNTczkc9d"?>
<x:xmpmeta xmlns:x="adobe:ns:meta/" x:xmptk="Adobe XMP Core 5.6-c142 79.160924, 2017/07/13-01:06:39        ">
   <rdf:RDF xmlns:rdf="http://www.w3.org/1999/02/22-rdf-syntax-ns#">
      <rdf:Description rdf:about=""/>
   </rdf:RDF>
</x:xmpmeta>
                                                                                                    
                                                                                                    
                                                                                                    
                                                                                                    
                                                                                                    
                                                                                                    
                                                                                                    
                                                                                                    
                                                                                                    
                                                                                                    
                                                                                                    
                                                                                                    
                                                                                                    
                                                                                                    
                                                                                                    
                                                                                                    
                                                                                                    
                                                                                                    
                                                                                                    
                                                                                                    
                           
<?xpacket end="w"?></metadata>
<defs>
    <style>
      .cls-1 {
        fill: #2aacc8;
        fill-rule: evenodd;
      }
    </style>
  </defs>
  <path id="clients" class="cls-1" d="M17.825,14.007H16.267l-3.151-2.852a8.369,8.369,0,0,0,3.547-2.163V8.37c-0.655.117-2.129-.392-1.516-0.694a1.276,1.276,0,0,0,.6-0.725,2.186,2.186,0,0,1-.1-0.552l-0.015-.27a0.372,0.372,0,0,1-.116.024,0.389,0.389,0,0,1-.386-0.393V4.975a0.389,0.389,0,0,1,.386-0.393c0.011,0,.021.006,0.032,0.007l-0.028-.508a2.327,2.327,0,1,1,4.621,0l-0.028.508c0.011,0,.021-0.007.032-0.007a0.389,0.389,0,0,1,.386.393V5.76a0.389,0.389,0,0,1-.386.393,0.373,0.373,0,0,1-.117-0.024L20.007,6.4a2.166,2.166,0,0,1-.136.62,1.238,1.238,0,0,0,.57.656c0.6,0.293-.775.781-1.455,0.7V8.992a8.444,8.444,0,0,0,3.853,2.266A3.076,3.076,0,0,1,24,13.091v0.916H17.825Zm-3.87-6.548a0.625,0.625,0,0,1-.193-0.038l-0.025.432a3.489,3.489,0,0,1-1.678,2.768v1.367A13.964,13.964,0,0,0,18.4,15.6s1.9,1.462,1.9,2.924v1.462H0V18.527C0,17.065,1.9,15.6,1.9,15.6a13.963,13.963,0,0,0,6.336-3.616V10.623a3.484,3.484,0,0,1-1.68-2.771L6.534,7.421a0.612,0.612,0,0,1-.825-0.588V5.58a0.631,0.631,0,0,1,.634-0.627c0.019,0,.035.009,0.053,0.011L6.351,4.153a3.869,3.869,0,0,1,3.8-4.159,3.864,3.864,0,0,1,3.8,4.159L13.9,4.964c0.018,0,.034-0.01.052-0.01a0.63,0.63,0,0,1,.634.627V6.833A0.63,0.63,0,0,1,13.955,7.459Z"/>
</svg>
