<svg xmlns="http://www.w3.org/2000/svg" width="20" height="26" viewBox="0 0 20 26">
  <metadata><?xpacket begin="﻿" id="W5M0MpCehiHzreSzNTczkc9d"?>
<x:xmpmeta xmlns:x="adobe:ns:meta/" x:xmptk="Adobe XMP Core 5.6-c142 79.160924, 2017/07/13-01:06:39        ">
   <rdf:RDF xmlns:rdf="http://www.w3.org/1999/02/22-rdf-syntax-ns#">
      <rdf:Description rdf:about=""/>
   </rdf:RDF>
</x:xmpmeta>
                                                                                                    
                                                                                                    
                                                                                                    
                                                                                                    
                                                                                                    
                                                                                                    
                                                                                                    
                                                                                                    
                                                                                                    
                                                                                                    
                                                                                                    
                                                                                                    
                                                                                                    
                                                                                                    
                                                                                                    
                                                                                                    
                                                                                                    
                                                                                                    
                                                                                                    
                                                                                                    
                           
<?xpacket end="w"?></metadata>
<defs>
    <style>
      .cls-1 {
        fill: #fff;
        fill-rule: evenodd;
      }
    </style>
  </defs>
  <path id="link" class="cls-1" d="M19.361,6.808l-3.5,6.062a2,2,0,0,1-2.732.732l-0.866-.5,1-1.732h0A1,1,0,0,0,14.629,11l2.5-4.33a1,1,0,0,0-.366-1.366l-3.464-2a1,1,0,0,0-1.366.366L9.433,8A1,1,0,0,0,9.8,9.37L8.8,11.1l-0.866-.5A2,2,0,0,1,7.2,7.87l3.5-6.062a2,2,0,0,1,2.732-.732l5.2,3A2,2,0,0,1,19.361,6.808ZM7.531,17.3a1,1,0,0,1-.366-1.366l4-6.928A1,1,0,1,1,12.9,10l-4,6.928A1,1,0,0,1,7.531,17.3ZM6.8,14.567h0a1,1,0,0,0-1.366.366l-2.5,4.33A1,1,0,0,0,3.3,20.629l3.464,2a1,1,0,0,0,1.366-.366l2.5-4.33a1,1,0,0,0-.366-1.366h0l1-1.732,0.866,0.5a2,2,0,0,1,.732,2.732l-3.5,6.062a2,2,0,0,1-2.732.732l-5.2-3A2,2,0,0,1,.7,19.129l3.5-6.062a2,2,0,0,1,2.732-.732l0.866,0.5Z"/>
</svg>
